<svg width="24" height="28" viewBox="0 0 24 28" fill="none" xmlns="http://www.w3.org/2000/svg">
<path d="M21.9993 16C21.9993 17.9779 21.4128 19.9112 20.314 21.5557C19.2152 23.2003 17.6535 24.482 15.8262 25.2388C13.999 25.9957 11.9883 26.1937 10.0484 25.8079C8.10865 25.422 6.32682 24.4696 4.92829 23.0711C3.52977 21.6725 2.57735 19.8908 2.1915 17.9509C1.80565 16.0111 2.00369 14.0004 2.76057 12.1732C3.51743 10.3459 4.79917 8.78415 6.44366 7.68533C8.08815 6.58652 10.0215 6.00003 11.9994 6.00003H16.1136L12.9003 9.21416L13.843 10.157L18.666 5.33336L13.8424 0.509766L12.8998 1.45256L16.1136 4.66669H11.9994C9.75788 4.66669 7.56666 5.33139 5.7029 6.57671C3.83914 7.82203 2.38651 9.59205 1.52873 11.6629C0.670925 13.7339 0.446485 16.0127 0.883792 18.2111C1.32109 20.4095 2.40049 22.4289 3.98549 24.0139C5.57047 25.5989 7.58988 26.6783 9.78828 27.1156C11.9868 27.5529 14.2655 27.3284 16.3364 26.4707C18.4074 25.6129 20.1773 24.1603 21.4227 22.2965C22.668 20.4328 23.3327 18.2416 23.3327 16H21.9993Z" fill="#323232"/>
</svg>
