<svg width="24" height="28" viewBox="0 0 24 28" fill="none" xmlns="http://www.w3.org/2000/svg">
<path d="M20.0127 7.98576C18.9627 6.93025 17.7139 6.09344 16.3384 5.52373C14.9629 4.95401 13.4881 4.66272 11.9993 4.66669H7.88508L11.0984 1.45256L10.1557 0.509766L5.33268 5.33336L10.1563 10.157L11.0989 9.21416L7.88508 6.00003H11.9993C13.9772 6.00003 15.9105 6.58652 17.5551 7.68533C19.1995 8.78415 20.4812 10.3459 21.2381 12.1732C21.9951 14.0004 22.1931 16.0111 21.8072 17.9509C21.4213 19.8908 20.469 21.6725 19.0704 23.0711C17.6719 24.4696 15.89 25.422 13.9503 25.8079C12.0104 26.1937 9.99975 25.9957 8.17251 25.2388C6.34526 24.482 4.78347 23.2003 3.68466 21.5557C2.58584 19.9112 1.99935 17.9779 1.99935 16H0.666016C0.665989 17.8639 1.12563 19.6989 2.00423 21.3427C2.88282 22.9864 4.15324 24.3881 5.70295 25.4236C7.25267 26.4591 9.03383 27.0963 10.8887 27.2789C12.7435 27.4616 14.6148 27.184 16.3367 26.4707C18.0587 25.7575 19.578 24.6304 20.7604 23.1896C21.9427 21.7488 22.7515 20.0387 23.1151 18.2107C23.4785 16.3827 23.3856 14.4932 22.8445 12.7097C22.3033 10.9261 21.3307 9.30359 20.0127 7.98576Z" fill="#323232"/>
</svg>
