<svg width="295" height="29" viewBox="0 0 295 29" fill="none" xmlns="http://www.w3.org/2000/svg">
<path d="M54.0727 22.8604C54.0727 22.6562 54.0727 22.4009 53.843 22.4009H52.49C52.3368 22.4009 52.2603 22.3244 52.2603 22.0691V6.39495C52.2603 6.13968 52.3368 6.06309 52.49 6.06309H53.843C54.0727 6.06309 54.0727 5.83334 54.0727 5.62912C54.0727 5.4249 54.0727 5.16962 53.843 5.16962H36.0501C35.8203 5.16962 35.8203 5.4249 35.8203 5.62912C35.8203 5.83334 35.8203 6.06309 36.0501 6.06309H37.403C37.5562 6.06309 37.6328 6.13968 37.6328 6.39495V22.0691C37.6328 22.3244 37.5562 22.4009 37.403 22.4009H36.0501C35.8203 22.4009 35.8203 22.6562 35.8203 22.8604C35.8203 23.0647 35.8203 23.2944 36.0501 23.2944H42.1257C42.3554 23.2944 42.3554 23.0647 42.3554 22.8604C42.3554 22.6562 42.3554 22.4009 42.1257 22.4009H40.7727C40.6196 22.4009 40.543 22.3244 40.543 22.0691V6.31837H49.3501V22.0691C49.3501 22.3244 49.2735 22.4009 49.1203 22.4009H47.7674C47.5376 22.4009 47.5376 22.6562 47.5376 22.8604C47.5376 23.0647 47.5376 23.2944 47.7674 23.2944H53.843C54.0727 23.2944 54.0727 23.0647 54.0727 22.8604Z" fill="#323232"/>
<path d="M64.7332 10.8368C64.7332 12.2664 64.1206 15.3808 61.1593 15.3808H60.1127V6.29284H61.1593C64.1206 6.29284 64.7332 9.40724 64.7332 10.8368ZM67.9497 10.8368C67.9497 6.77787 65.1161 5.16962 61.4146 5.16962H55.6198C55.39 5.16962 55.39 5.4249 55.39 5.62912C55.39 5.83334 55.39 6.06309 55.6198 6.06309H56.9727C57.1259 6.06309 57.2025 6.13968 57.2025 6.39495V22.0691C57.2025 22.3244 57.1259 22.4009 56.9727 22.4009H55.6198C55.39 22.4009 55.39 22.6562 55.39 22.8604C55.39 23.0647 55.39 23.2944 55.6198 23.2944H61.6954C61.9252 23.2944 61.9252 23.0647 61.9252 22.8604C61.9252 22.6562 61.9252 22.4009 61.6954 22.4009H60.3424C60.1893 22.4009 60.1127 22.3244 60.1127 22.0691V16.504H61.4146C65.1161 16.504 67.9497 14.8957 67.9497 10.8368Z" fill="#323232"/>
<path d="M85.4284 14.2065C85.4284 18.6739 83.1053 22.2733 79.2506 22.2733C75.3704 22.2733 73.1239 18.6739 73.1239 14.2065C73.1239 9.73911 75.3704 6.11415 79.2506 6.11415C83.1053 6.11415 85.4284 9.73911 85.4284 14.2065ZM88.6449 14.232C88.6449 9.07538 84.4838 4.86328 79.2506 4.86328C74.0684 4.86328 69.9074 9.07538 69.9074 14.232C69.9074 19.4397 74.0684 23.6007 79.2506 23.6007C84.4838 23.6007 88.6449 19.4397 88.6449 14.232Z" fill="#323232"/>
<path d="M118.605 21.8138C118.605 21.533 118.4 21.4309 118.171 21.4309C117.915 21.4309 117.124 21.8648 116.613 21.8648C114.29 21.8648 113.116 20.0268 112.018 17.8314C110.87 15.5339 109.415 12.4961 105.713 11.8834C106.147 9.25408 107.985 6.1652 109.9 6.1652C109.823 6.39495 109.772 6.59918 109.772 6.77787C109.772 7.67135 110.359 8.0798 111.227 8.0798C112.248 8.0798 112.708 7.23738 112.708 6.59918C112.708 4.99092 111.253 4.86328 110.538 4.86328C106.862 4.86328 105.049 8.74352 104.36 11.7048H104.258V6.39495C104.258 6.21626 104.309 6.06309 104.539 6.06309H105.841C106.07 6.06309 106.07 5.83334 106.07 5.62912C106.07 5.4249 106.07 5.16962 105.841 5.16962H99.765C99.5353 5.16962 99.5353 5.4249 99.5353 5.62912C99.5353 5.83334 99.5353 6.06309 99.765 6.06309H101.118C101.271 6.06309 101.348 6.13968 101.348 6.39495V11.7048H101.246C100.556 8.74352 98.7439 4.86328 95.0679 4.86328C94.3531 4.86328 92.898 4.99092 92.898 6.59918C92.898 7.23738 93.3576 8.0798 94.3787 8.0798C95.2466 8.0798 95.8338 7.67135 95.8338 6.77787C95.8338 6.59918 95.7827 6.39495 95.7061 6.1652C97.6207 6.1652 99.4587 9.25408 99.8927 11.8834C96.1911 12.4961 94.7361 15.5339 93.5873 17.8314C92.4896 20.0268 91.3153 21.8648 88.9923 21.8648C88.4817 21.8648 87.6904 21.4309 87.4351 21.4309C87.2053 21.4309 87.0011 21.533 87.0011 21.8138C87.0011 22.6562 88.9412 23.6263 90.3708 23.6263C93.8681 23.6263 94.8637 22.2478 96.4464 19.2355C97.876 16.504 98.9482 13.6193 101.348 13.6193V22.0691C101.348 22.3244 101.271 22.4009 101.118 22.4009H99.765C99.5353 22.4009 99.5353 22.6562 99.5353 22.8604C99.5353 23.0647 99.5353 23.2944 99.765 23.2944H105.841C106.07 23.2944 106.07 23.0647 106.07 22.8604C106.07 22.6562 106.07 22.4009 105.841 22.4009H104.488C104.335 22.4009 104.258 22.3244 104.258 22.0691V13.6193C106.658 13.6193 107.73 16.504 109.159 19.2355C110.742 22.2478 111.738 23.6263 115.235 23.6263C116.664 23.6263 118.605 22.6562 118.605 21.8138Z" fill="#323232"/>
<path d="M138.159 22.8604C138.159 22.6562 138.159 22.4009 137.929 22.4009H136.576C136.423 22.4009 136.347 22.3244 136.347 22.0691V6.39495C136.347 6.13968 136.423 6.06309 136.576 6.06309H137.929C138.159 6.06309 138.159 5.83334 138.159 5.62912C138.159 5.4249 138.159 5.16962 137.929 5.16962H131.854C131.624 5.16962 131.624 5.4249 131.624 5.62912C131.624 5.83334 131.624 6.06309 131.854 6.06309H133.207C133.36 6.06309 133.437 6.13968 133.437 6.39495V6.90551L123.608 19.4142V6.39495C123.608 6.13968 123.685 6.06309 123.838 6.06309H125.165C125.395 6.06309 125.395 5.83334 125.395 5.62912C125.395 5.4249 125.395 5.16962 125.165 5.16962H119.115C118.886 5.16962 118.886 5.4249 118.886 5.62912C118.886 5.83334 118.886 6.06309 119.115 6.06309H120.468C120.622 6.06309 120.698 6.13968 120.698 6.39495V22.0691C120.698 22.3244 120.622 22.4009 120.468 22.4009H119.115C118.886 22.4009 118.886 22.6562 118.886 22.8604C118.886 23.0647 118.886 23.2944 119.115 23.2944H125.191C125.421 23.2944 125.421 23.0647 125.421 22.8604C125.421 22.6562 125.421 22.4009 125.191 22.4009H123.838C123.685 22.4009 123.608 22.3244 123.608 22.0691V21.6096L133.437 9.10091V22.0691C133.437 22.3244 133.36 22.4009 133.207 22.4009H131.854C131.624 22.4009 131.624 22.6562 131.624 22.8604C131.624 23.0647 131.624 23.2944 131.854 23.2944H137.929C138.159 23.2944 138.159 23.0647 138.159 22.8604Z" fill="#323232"/>
<path d="M139.018 7.77346C138.992 7.82452 138.941 7.95216 138.941 8.05427C138.941 8.28402 139.171 8.30955 139.503 8.30955C139.835 8.30955 139.988 8.20743 140.065 8.13085L141.264 6.9821C141.698 6.54812 142.286 6.29284 143.077 6.29284H146.013V22.0691C146.013 22.2988 145.936 22.3754 145.783 22.3754H144.43C144.2 22.3754 144.2 22.6052 144.2 22.8094C144.2 23.0136 144.2 23.2689 144.43 23.2944H150.506C150.735 23.2689 150.735 23.0136 150.735 22.8094C150.735 22.6052 150.735 22.3754 150.506 22.3754H149.153C148.999 22.3754 148.923 22.2988 148.923 22.0691V6.29284H151.858C152.65 6.29284 153.237 6.54812 153.671 6.9821L154.871 8.13085C154.947 8.20743 155.101 8.30955 155.432 8.30955C155.764 8.30955 155.994 8.28402 155.994 8.05427C155.994 7.95216 155.943 7.82452 155.917 7.77346L154.615 5.16962H140.32L139.018 7.77346Z" fill="#323232"/>
<path d="M172.158 14.2065C172.158 18.6739 169.835 22.2733 165.981 22.2733C162.1 22.2733 159.854 18.6739 159.854 14.2065C159.854 9.73911 162.1 6.11415 165.981 6.11415C169.835 6.11415 172.158 9.73911 172.158 14.2065ZM175.375 14.232C175.375 9.07538 171.214 4.86328 165.981 4.86328C160.798 4.86328 156.637 9.07538 156.637 14.232C156.637 19.4397 160.798 23.6007 165.981 23.6007C171.214 23.6007 175.375 19.4397 175.375 14.232Z" fill="#323232"/>
<path fill-rule="evenodd" clip-rule="evenodd" d="M14.7344 28.7189C22.6649 28.7189 29.0939 22.2899 29.0939 14.3594C29.0939 6.42894 22.6649 0 14.7344 0C6.80394 0 0.375 6.42894 0.375 14.3594C0.375 22.2899 6.80394 28.7189 14.7344 28.7189ZM10.0853 7.97754H15.8328L11.5483 20.7415H5.80078L10.0853 7.97754ZM17.9212 7.97754H23.6687L19.3842 20.7415H13.6367L17.9212 7.97754Z" fill="#E96A41"/>
<g clip-path="url(#clip0_79_4252)">
<path fill-rule="evenodd" clip-rule="evenodd" d="M230.466 3.29714H228.555V4.429H230.413V5.12967H228.555V6.74661H230.466V7.44729H227.839V2.56952H230.466V3.29714Z" fill="#9E9E9E"/>
<path fill-rule="evenodd" clip-rule="evenodd" d="M232.43 6.74661H232.882C233.678 6.74661 233.837 6.34238 233.837 6.01899C233.837 5.66865 233.678 5.29137 232.908 5.29137H232.43V6.74661ZM232.43 4.67154H232.669C232.829 4.67154 233.439 4.67154 233.439 3.94392C233.439 3.35104 232.961 3.29714 232.669 3.29714H232.43V4.67154ZM232.43 2.56952C233.041 2.56952 233.306 2.65037 233.572 2.83901C233.784 2.97375 234.129 3.29714 234.129 3.94392C234.129 4.18646 234.076 4.5368 233.731 4.83323C234.262 4.99493 234.554 5.45306 234.554 5.96509C234.554 6.18068 234.527 6.71966 234.076 7.09695C233.678 7.42034 233.28 7.44729 232.802 7.44729H231.714V2.56952H232.43Z" fill="#9E9E9E"/>
<path fill-rule="evenodd" clip-rule="evenodd" d="M236.199 4.77934H236.544C237.155 4.77934 237.473 4.4829 237.473 4.02476C237.473 3.75527 237.367 3.27019 236.518 3.27019H236.199V4.77934ZM236.518 2.56952C236.836 2.56952 237.235 2.62342 237.58 2.83901C237.978 3.1085 238.163 3.59358 238.163 4.02476C238.163 4.29425 238.11 4.75239 237.712 5.07577C237.314 5.42611 236.889 5.45306 236.544 5.45306H236.199V7.44729H235.483V2.56952H236.518Z" fill="#9E9E9E"/>
<path fill-rule="evenodd" clip-rule="evenodd" d="M243.073 5.02149C243.073 3.94353 242.357 3.16201 241.322 3.16201C240.287 3.16201 239.57 3.94353 239.57 5.02149C239.57 6.09945 240.287 6.85402 241.322 6.85402C242.357 6.85402 243.073 6.09945 243.073 5.02149ZM243.817 5.02149C243.817 6.44978 242.755 7.52774 241.322 7.52774C239.889 7.52774 238.827 6.44978 238.827 5.02149C238.827 3.59319 239.889 2.48828 241.322 2.48828C242.755 2.48828 243.817 3.59319 243.817 5.02149Z" fill="#9E9E9E"/>
<path fill-rule="evenodd" clip-rule="evenodd" d="M248.249 2.56952V7.44729H247.506V3.29714H245.463V7.44729H244.72V2.56952H248.249Z" fill="#9E9E9E"/>
<path fill-rule="evenodd" clip-rule="evenodd" d="M252.31 3.29714H250.399V4.429H252.256V5.12967H250.399V6.74661H252.31V7.44729H249.682V2.56952H252.31V3.29714Z" fill="#9E9E9E"/>
<path fill-rule="evenodd" clip-rule="evenodd" d="M256.769 4.15913L253.558 7.66249V2.56914H254.274V5.85691L257.512 2.38049V7.4469H256.769V4.15913Z" fill="#9E9E9E"/>
<path fill-rule="evenodd" clip-rule="evenodd" d="M262.475 3.70099C261.944 3.2159 261.466 3.16201 261.201 3.16201C260.139 3.16201 259.449 3.94353 259.449 5.02149C259.449 6.04555 260.193 6.85402 261.201 6.85402C261.785 6.85402 262.21 6.55758 262.475 6.28809V7.17741C262.024 7.47384 261.493 7.52774 261.175 7.52774C260.299 7.52774 259.768 7.12351 259.476 6.88097C258.919 6.34199 258.733 5.72216 258.733 5.02149C258.733 4.13217 259.078 3.51234 259.476 3.13506C259.98 2.64998 260.538 2.48828 261.201 2.48828C261.652 2.48828 262.077 2.56913 262.475 2.83862V3.70099Z" fill="#9E9E9E"/>
<path fill-rule="evenodd" clip-rule="evenodd" d="M264.414 4.50985L266.271 2.56952H267.227L265.077 4.77934L267.253 7.44729H266.271L264.546 5.29137L264.414 5.42611V7.44729H263.67V2.56952H264.414V4.50985Z" fill="#9E9E9E"/>
<path fill-rule="evenodd" clip-rule="evenodd" d="M271.393 4.15913L268.182 7.66249V2.56914H268.899V5.85691L272.136 2.38049V7.4469H271.393V4.15913Z" fill="#9E9E9E"/>
<path fill-rule="evenodd" clip-rule="evenodd" d="M276.649 4.15913L273.438 7.66249V2.56914H274.154V5.85691L277.365 2.38049V7.4469H276.649V4.15913Z" fill="#9E9E9E"/>
<path fill-rule="evenodd" clip-rule="evenodd" d="M228.184 12.7289L229.431 15.2351L230.546 12.7289H231.289L229.139 17.5797H228.37L229.033 16.1245L227.308 12.7289H228.184Z" fill="#9E9E9E"/>
<path fill-rule="evenodd" clip-rule="evenodd" d="M232.643 14.6153H234.713V12.7289H235.429V17.5797H234.713V15.316H232.643V17.5797H231.899V12.7289H232.643V14.6153Z" fill="#9E9E9E"/>
<path fill-rule="evenodd" clip-rule="evenodd" d="M240.101 14.2919L236.863 17.7953V12.7289H237.606V16.0167L240.818 12.5133V17.5797H240.101V14.2919Z" fill="#9E9E9E"/>
<path fill-rule="evenodd" clip-rule="evenodd" d="M242.835 16.879H243.286C244.109 16.879 244.241 16.4478 244.241 16.1514C244.241 15.8011 244.082 15.4238 243.312 15.4238H242.835V16.879ZM242.835 14.804H243.074C243.259 14.804 243.843 14.804 243.843 14.1033C243.843 13.4835 243.392 13.4026 243.1 13.4026H242.835V14.804ZM242.835 12.7289C243.445 12.7289 243.737 12.7828 244.002 12.9714C244.215 13.1331 244.533 13.4296 244.533 14.0763C244.533 14.3189 244.48 14.6962 244.135 14.9656C244.692 15.1273 244.958 15.5855 244.958 16.0706C244.958 16.3131 244.958 16.8521 244.48 17.2294C244.082 17.5528 243.711 17.5797 243.206 17.5797H242.118V12.7289H242.835Z" fill="#9E9E9E"/>
<path fill-rule="evenodd" clip-rule="evenodd" d="M248.673 13.4026H246.763V14.5614H248.62V15.2621H246.763V16.879H248.673V17.5797H246.02V12.7289H248.673V13.4026Z" fill="#9E9E9E"/>
<path fill-rule="evenodd" clip-rule="evenodd" d="M250.638 14.9117H250.957C251.594 14.9117 251.885 14.5884 251.885 14.1572C251.885 13.8877 251.779 13.4026 250.957 13.4026H250.638V14.9117ZM250.957 12.7289C251.249 12.7289 251.673 12.7289 252.018 12.9714C252.416 13.2409 252.602 13.726 252.602 14.1572C252.602 14.4536 252.522 14.8848 252.124 15.2351C251.753 15.5585 251.328 15.5855 250.957 15.5855H250.638V17.5797H249.895V12.7289H250.957Z" fill="#9E9E9E"/>
<path fill-rule="evenodd" clip-rule="evenodd" d="M257.035 13.8607C256.504 13.3757 256.026 13.3218 255.734 13.3218C254.699 13.3218 254.009 14.1033 254.009 15.1543C254.009 16.1784 254.726 16.9868 255.734 16.9868C256.318 16.9868 256.769 16.6904 257.035 16.4209V17.3102C256.557 17.6067 256.053 17.6606 255.734 17.6606C254.858 17.6606 254.301 17.2563 254.036 16.9868C253.478 16.4748 253.266 15.855 253.266 15.1543C253.266 14.265 253.638 13.6452 254.036 13.2679C254.54 12.7828 255.097 12.6211 255.761 12.6211C256.185 12.6211 256.61 12.7019 257.035 12.9714V13.8607Z" fill="#9E9E9E"/>
<path fill-rule="evenodd" clip-rule="evenodd" d="M261.175 14.2919L257.937 17.7953V12.7289H258.68V16.0167L261.891 12.5133V17.5797H261.175V14.2919Z" fill="#9E9E9E"/>
<path fill-rule="evenodd" clip-rule="evenodd" d="M264.652 13.4026V17.5797H263.935V13.4026H262.847V12.7289H265.766V13.4026H264.652Z" fill="#9E9E9E"/>
<path fill-rule="evenodd" clip-rule="evenodd" d="M269.323 13.4026H267.438V14.5614H269.27V15.2621H267.438V16.879H269.323V17.5797H266.695V12.7289H269.323V13.4026Z" fill="#9E9E9E"/>
<path fill-rule="evenodd" clip-rule="evenodd" d="M271.898 13.4026V17.5797H271.155V13.4026H270.066V12.7289H272.986V13.4026H271.898Z" fill="#9E9E9E"/>
<path fill-rule="evenodd" clip-rule="evenodd" d="M228.555 27.0118H229.007C229.803 27.0118 229.962 26.5807 229.962 26.2842C229.962 25.9339 229.776 25.5566 229.033 25.5566H228.555V27.0118ZM228.555 24.9368H228.794C228.954 24.9368 229.564 24.9368 229.564 24.2361C229.564 23.6163 229.086 23.5354 228.821 23.5354H228.555V24.9368ZM228.555 22.8617C229.166 22.8617 229.431 22.9156 229.697 23.1042C229.909 23.2659 230.254 23.5624 230.254 24.2091C230.254 24.4517 230.201 24.802 229.856 25.0985C230.387 25.2602 230.679 25.7183 230.679 26.2034C230.679 26.4459 230.652 26.9849 230.201 27.3622C229.803 27.6856 229.405 27.7125 228.927 27.7125H227.839V22.8617H228.555Z" fill="#9E9E9E"/>
<path fill-rule="evenodd" clip-rule="evenodd" d="M236.385 23.9936C235.855 23.5085 235.35 23.4546 235.085 23.4546C234.05 23.4546 233.333 24.2361 233.333 25.2871C233.333 26.3381 234.076 27.1196 235.085 27.1196C235.669 27.1196 236.12 26.8232 236.385 26.5537V27.443C235.908 27.7125 235.403 27.7934 235.085 27.7934C234.209 27.7934 233.652 27.4161 233.386 27.1196C232.829 26.6076 232.617 25.9878 232.617 25.2871C232.617 24.3978 232.988 23.778 233.386 23.4007C233.864 22.9156 234.448 22.7539 235.111 22.7539C235.563 22.7539 235.961 22.8348 236.385 23.1042V23.9936Z" fill="#9E9E9E"/>
<path fill-rule="evenodd" clip-rule="evenodd" d="M239.809 25.8264L239.092 24.1826L238.349 25.8264H239.809ZM240.1 26.5271H238.057L237.526 27.7129H236.73L239.119 22.5656L241.401 27.7129H240.605L240.1 26.5271Z" fill="#9E9E9E"/>
<path fill-rule="evenodd" clip-rule="evenodd" d="M242.729 24.7481H244.772V22.8617H245.516V27.7125H244.772V25.4488H242.729V27.7125H241.986V22.8617H242.729V24.7481Z" fill="#9E9E9E"/>
<path fill-rule="evenodd" clip-rule="evenodd" d="M247.665 24.7751L249.523 22.8617H250.478L248.329 25.0446L250.505 27.7125H249.523L247.825 25.5566L247.665 25.6913V27.7125H246.949V22.8617H247.665V24.7751Z" fill="#9E9E9E"/>
<path fill-rule="evenodd" clip-rule="evenodd" d="M252.761 23.5354V27.7125H252.018V23.5354H250.93V22.8617H253.85V23.5354H252.761Z" fill="#9E9E9E"/>
<path fill-rule="evenodd" clip-rule="evenodd" d="M260.14 22.8617V27.7125H259.396V23.5354H257.326V27.7125H256.61V22.8617H260.14Z" fill="#9E9E9E"/>
<path fill-rule="evenodd" clip-rule="evenodd" d="M264.201 23.5354H262.29V24.7212H264.121V25.3949H262.29V27.0118H264.201V27.7125H261.547V22.8617H264.201V23.5354Z" fill="#9E9E9E"/>
<path fill-rule="evenodd" clip-rule="evenodd" d="M266.748 23.5354V27.7125H266.032V23.5354H264.917V22.8617H267.863V23.5354H266.748Z" fill="#9E9E9E"/>
<path fill-rule="evenodd" clip-rule="evenodd" d="M271.42 23.5354H269.509V24.7212H271.367V25.3949H269.509V27.0118H271.42V27.7125H268.792V22.8617H271.42V23.5354Z" fill="#9E9E9E"/>
<path fill-rule="evenodd" clip-rule="evenodd" d="M273.384 25.0446H273.729C274.366 25.0446 274.658 24.7212 274.658 24.29C274.658 24.0205 274.552 23.5354 273.729 23.5354H273.384V25.0446ZM273.729 22.8617C274.021 22.8617 274.419 22.8617 274.764 23.1042C275.162 23.3737 275.374 23.8319 275.374 24.29C275.374 24.5864 275.295 25.0176 274.897 25.368C274.525 25.6913 274.074 25.7452 273.729 25.7452H273.384V27.7125H272.667V22.8617H273.729Z" fill="#9E9E9E"/>
<path fill-rule="evenodd" clip-rule="evenodd" d="M277.127 27.0118H277.578C277.764 27.0118 278.533 27.0118 278.533 26.2842C278.533 25.9069 278.374 25.5027 277.578 25.5027H277.127V27.0118ZM276.384 22.8617H278.772V23.5354H277.127V24.802H277.605C277.95 24.802 278.427 24.8559 278.799 25.2063C279.064 25.4488 279.25 25.8261 279.25 26.2573C279.25 26.7154 279.064 27.1735 278.666 27.443C278.321 27.6856 277.897 27.7125 277.605 27.7125H276.384V22.8617Z" fill="#9E9E9E"/>
<path fill-rule="evenodd" clip-rule="evenodd" d="M280.524 22.8617L281.771 25.368L282.886 22.8617H283.629L281.479 27.7125H280.71L281.373 26.2573L279.648 22.8617H280.524Z" fill="#9E9E9E"/>
<path fill-rule="evenodd" clip-rule="evenodd" d="M284.983 25.0446H285.302C285.965 25.0446 286.257 24.7212 286.257 24.29C286.257 24.0205 286.125 23.5354 285.302 23.5354H284.983V25.0446ZM285.302 22.8617C285.594 22.8617 286.018 22.8617 286.363 23.1042C286.761 23.3737 286.947 23.8319 286.947 24.29C286.947 24.5864 286.894 25.0176 286.47 25.368C286.098 25.6913 285.673 25.7452 285.302 25.7452H284.983V27.7125H284.24V22.8617H285.302Z" fill="#9E9E9E"/>
<path fill-rule="evenodd" clip-rule="evenodd" d="M287.982 22.8617H290.371V23.5354H288.726V27.7125H287.982V22.8617Z" fill="#9E9E9E"/>
<path fill-rule="evenodd" clip-rule="evenodd" d="M293.98 23.5354H292.07V24.7212H293.927V25.3949H292.07V27.0118H293.98V27.7125H291.353V22.8617H293.98V23.5354Z" fill="#9E9E9E"/>
<path fill-rule="evenodd" clip-rule="evenodd" d="M220.009 1.76093V28.3596H220.355V1.76093H220.009ZM212.18 23.8591V28.3596H212.525V23.7243C212.445 23.7513 212.366 23.7782 212.312 23.8321L212.18 23.8591ZM212.18 1.76093V19.4664C212.312 19.3586 212.419 19.2778 212.525 19.17V1.76093H212.18ZM203.209 23.4818V28.3596H203.554V23.6435C203.448 23.5896 203.315 23.5357 203.209 23.4818ZM203.209 11.9476V18.3885C203.315 18.5501 203.448 18.7118 203.554 18.8466V11.5973C203.448 11.7051 203.315 11.8129 203.209 11.9476ZM203.209 1.76093V7.42021C203.315 7.39326 203.448 7.36631 203.554 7.33937V1.76093H203.209ZM195.379 1.76093V28.3596H195.724V1.76093H195.379Z" fill="#9E9E9E"/>
<path fill-rule="evenodd" clip-rule="evenodd" d="M214.966 9.06353C214.966 9.19827 215.179 10.1684 215.232 11.2194C215.311 12.4321 215.311 13.9143 215.073 15.127C214.834 16.6362 214.25 18.2262 213.215 19.3311C211.941 20.7055 209.95 21.2984 208.145 21.2984C206.393 21.2984 204.562 20.7324 203.288 19.4389C202.147 18.2801 201.722 16.717 201.722 15.0732C201.722 14.1569 201.908 13.2676 202.2 12.513C202.784 10.95 204.164 10.384 205.756 10.4379C206.5 10.4649 207.933 10.5996 208.49 11.1925C209.233 11.974 209.074 13.591 208.782 14.4533C208.729 14.5881 208.623 14.9923 208.119 15.0462C207.853 15.0732 207.216 15.0193 206.924 14.9384C206.765 14.8576 206.685 14.642 206.685 14.4533C206.659 14.0491 206.898 13.6449 206.898 13.2676C206.898 13.1059 206.792 12.9711 206.606 12.9172C206.208 12.7825 205.173 12.486 204.668 13.1598C204.482 13.4293 204.27 14.3455 204.35 14.9923C204.429 15.8008 204.907 16.3937 205.358 16.6901C205.863 17.0135 206.685 17.2291 207.508 17.283C208.437 17.3099 209.446 17.1482 210.03 16.6901C211.144 15.8277 211.357 14.8037 211.489 13.4023C211.755 11.1655 210.773 9.09048 208.517 8.25506C205.146 6.98845 201.085 7.76997 199.678 11.5159C198.458 14.7498 198.909 18.7921 201.324 21.3253C203.978 24.155 208.623 24.64 212.073 23.2656C214.621 22.2685 216.214 20.436 217.116 17.8489C217.647 16.4206 217.833 14.8576 217.859 13.3215C217.886 12.5399 217.833 11.8393 217.806 11.2194C217.753 10.6266 217.647 9.92589 217.567 9.46776C217.488 9.19827 217.276 9.14437 217.169 9.11742L215.577 8.76709C215.365 8.74014 215.046 8.76709 214.966 9.06353Z" fill="#FBC90B"/>
<path fill-rule="evenodd" clip-rule="evenodd" d="M255.389 1.70682V2.70394L256.637 1.35649V0.359375L255.389 1.70682Z" fill="#9E9E9E"/>
<path fill-rule="evenodd" clip-rule="evenodd" d="M275.269 1.70682V2.70394L276.516 1.35649V0.359375L275.269 1.70682Z" fill="#9E9E9E"/>
<path fill-rule="evenodd" clip-rule="evenodd" d="M254.248 25.4756V26.4727L255.495 25.1522V24.1281L254.248 25.4756Z" fill="#9E9E9E"/>
</g>
<defs>
<clipPath id="clip0_79_4252">
<rect width="99" height="28" fill="white" transform="translate(195.375 0.359375)"/>
</clipPath>
</defs>
</svg>
